:SAMPLES-PER-SECOND 30
:FULLY-SPECIFIED
:DEGREES
492
root  24.2902 36.8435 -2.66266 10.7674 -82.7104 -15.5837
RightUpLeg  -24.5319 -3.11336 0.312651
RightLeg  31.9336 0.577069 0.135594
RightFoot  -7.23102 -0.150172 2.79133
RightToes  -3.0268e-009 0 -3.6325e-017
Spine  12.0286 -1.35015 12.2694
Spine1  4.07175 0.663583 -1.7249
HEad  -17.229 -36.7295 6.97363
LeftShoulder1  -0.645027 5.03942 -35.8068
LeftArm  14.4682 11.3221 -39.5235
LeftForeArm  22.2761 -22.9874 -3.9461
LeftHand  -0.122717 9.53729 -1.89751
RightShoulder  -1.33128 -6.94349 32.1888
RightArm  24.2766 -5.27947 42.0903
RightForeArm  3.46603 22.7964 4.7599
RightHand  -0.320367 5.92744 -3.60989
LeftUpLeg  -5.92273 5.19869 5.16517
LeftLeg  60.5386 0.685584 1.65179
LeftFoot  -0.924173 0.331121 -3.09407
LeftToes  2.52475e-009 -1.26109e-010 3.16044e-011
493
root  23.5024 36.8867 -2.8082 10.8814 -82.5367 -15.1919
RightUpLeg  -24.2992 -3.08751 0.695326
RightLeg  33.1592 0.351817 -0.0142468
RightFoot  -9.34742 -0.107107 2.49259
RightToes  -3.0268e-009 0 -3.6325e-017
Spine  14.229 -1.40266 12.4476
Spine1  3.09517 0.634102 -1.18859
HEad  -21.034 -39.5091 9.5779
LeftShoulder1  -0.585108 4.89623 -35.7804
LeftArm  13.4342 12.2372 -38.9661
LeftForeArm  22.9015 -24.872 -4.09968
LeftHand  -0.125664 9.20025 -2.0803
RightShoulder  -1.31737 -6.9043 32.2186
RightArm  22.7717 -5.1019 42.1473
RightForeArm  3.35579 23.327 4.84156
RightHand  -0.324691 5.19388 -3.86844
LeftUpLeg  -11.9628 6.54081 5.3729
LeftLeg  66.0531 -0.87073 -1.39624
LeftFoot  -5.44581 0.0854313 -1.321
LeftToes  2.52475e-009 -1.26109e-010 3.16044e-011
494
root  22.7921 36.9377 -2.93603 7.9256 -83.0354 -11.6263
RightUpLeg  -24.2604 -2.97349 0.52924
RightLeg  34.2454 0.536724 0.129334
RightFoot  -11.3318 -0.0767262 2.24494
RightToes  -3.0268e-009 0 -3.6325e-017
Spine  16.8991 -1.24203 12.4182
Spine1  2.20297 0.942585 -1.28468
HEad  -25.0271 -43.5278 12.672
LeftShoulder1  -0.424 4.53522 -34.9635
LeftArm  11.1897 12.93 -39.6009
LeftForeArm  21.4357 -27.0957 -4.67739
LeftHand  -0.0477092 8.8327 -0.0235303
RightShoulder  -1.38368 -7.01292 32.9117
RightArm  20.5856 -4.99728 41.4567
RightForeArm  2.81854 24.7411 5.14928
RightHand  -0.414322 5.26383 -4.80928
LeftUpLeg  -17.2657 7.3567 4.32752
LeftLeg  66.8648 -1.39512 -2.85316
LeftFoot  -9.34588 0.11437 -3.11768
LeftToes  2.52475e-009 -1.26109e-010 3.16044e-011
495
root  22.1512 36.958 -2.99997 6.8844 -84.1889 -9.30939
RightUpLeg  -25.0777 -3.37526 0.445148
RightLeg  35.3128 1.72765 1.0452
RightFoot  -13.5748 -0.0435385 2.41196
RightToes  -3.0268e-009 0 -3.6325e-017
Spine  19.8559 -0.808583 12.2945
Spine1  0.351889 1.36976 -0.929408
HEad  -28.948 -43.5509 13.2865
LeftShoulder1  -0.365463 4.39041 -35.0709
LeftArm  8.48282 13.3375 -40.2697
LeftForeArm  21.7505 -29.7418 -5.26615
LeftHand  -0.0608325 8.69023 -0.36765
RightShoulder  -1.36249 -6.94037 33.1116
RightArm  17.5814 -5.32172 40.5551
RightForeArm  2.12901 26.3047 5.54272
RightHand  -0.497044 6.32058 -5.26142
LeftUpLeg  -22.2709 7.45876 3.02616
LeftLeg  63.3933 -1.67215 -3.04832
LeftFoot  -12.7592 0.0398482 -3.10057
LeftToes  2.52475e-009 -1.26109e-010 3.16044e-011
496
root  21.5466 36.9692 -3.04277 7.245 -85.7286 -7.4834
RightUpLeg  -26.8709 -4.08732 0.423141
RightLeg  36.217 3.30648 2.32927
RightFoot  -15.8432 -0.00801368 2.58751
RightToes  -3.0268e-009 0 -3.6325e-017
Spine  22.4244 -0.367589 12.0543
Spine1  -1.80387 1.754 -0.859571
HEad  -31.7489 -33.7782 7.73931
LeftShoulder1  -0.285696 4.19439 -35.1313
LeftArm  6.96425 13.322 -41.3475
LeftForeArm  23.9789 -32.9182 -5.9094
LeftHand  -0.0179055 7.45389 1.13144
RightShoulder  -1.25595 -6.72215 32.4905
RightArm  14.2981 -5.44697 40.5714
RightForeArm  3.02398 28.0147 5.89271
RightHand  -0.506464 6.99018 -5.08192
LeftUpLeg  -26.6651 6.48942 2.07822
LeftLeg  55.8145 -2.50641 -3.35692
LeftFoot  -15.2251 -0.0116449 -2.96626
LeftToes  2.52475e-009 -1.26109e-010 3.16044e-011
